<svg xmlns="http://www.w3.org/2000/svg" enable-background="new 0 0 24 24" viewBox="0 0 24 24" id="markdown"><path d="M21.592,20H2.408C1.08,20,0,18.928,0,17.609V6.391C0,5.072,1.08,4,2.408,4h19.184C22.92,4,24,5.072,24,6.391v11.219C24,18.928,22.92,20,21.592,20z M2.408,5.5C1.907,5.5,1.5,5.899,1.5,6.391v11.219c0,0.491,0.407,0.891,0.908,0.891h19.184c0.501,0,0.908-0.399,0.908-0.891V6.391c0-0.491-0.407-0.891-0.908-0.891H2.408z"></path><path d="M17.527 16c-.18 0-.359-.064-.502-.192l-2.777-2.5c-.308-.277-.333-.752-.056-1.06.278-.306.752-.332 1.06-.056l2.271 2.044 2.221-2.039c.305-.278.778-.26 1.06.046.28.305.26.779-.046 1.06l-2.723 2.5C17.892 15.934 17.709 16 17.527 16zM11.25 16c-.414 0-.75-.336-.75-.75v-4.546l-2.442 2.715c-.285.316-.83.316-1.115 0L4.5 10.704v4.546C4.5 15.664 4.164 16 3.75 16S3 15.664 3 15.25v-6.5c0-.311.191-.589.481-.7C3.771 7.94 4.1 8.018 4.308 8.248L7.5 11.796l3.192-3.548c.208-.23.537-.31.826-.198C11.809 8.161 12 8.439 12 8.75v6.5C12 15.664 11.664 16 11.25 16z"></path><path d="M17.5,16c-0.414,0-0.75-0.336-0.75-0.75v-6.5C16.75,8.336,17.086,8,17.5,8s0.75,0.336,0.75,0.75v6.5C18.25,15.664,17.914,16,17.5,16z"></path></svg>